<svg class="icon" viewBox="0 0 1024 1024" xmlns="http://www.w3.org/2000/svg" width="200" height="200"><defs><style/></defs><path d="M259.713 764.157h-27.947c-95.586 0-167.68-72.073-167.68-167.679 0-95.587 72.094-167.68 167.68-167.68h27.947v335.359zM203.82 487.77c-49.912 11.462-83.842 53.687-83.842 108.708 0 55.04 33.93 97.223 83.842 108.75V487.77zm586.876 276.387H762.75v-335.36h27.946c95.63 0 167.68 72.093 167.68 167.68.002 95.609-72.048 167.68-167.68 167.68m27.947-276.387v217.414c49.913-11.484 83.884-53.708 83.884-108.73 0-55.062-33.97-97.2-83.884-108.684m0 416.12v-55.893c13.929 0 27.948-8.69 27.948-27.947h55.936c0 47.815-36.11 83.84-83.884 83.84M706.86 847.997h111.783v55.892H706.86v-55.892zm0 0"/><path d="M637.691 960.044c-46.154 0-83.843-37.617-83.843-83.84 0-46.2 37.689-83.839 83.843-83.839 46.198 0 83.84 37.639 83.84 83.84 0 46.222-37.554 83.84-83.84 83.84m0-111.786c-15.37 0-27.947 12.532-27.947 27.947 0 15.437 12.575 27.945 27.947 27.945 15.456 0 27.948-12.508 27.948-27.945 0-15.415-12.493-27.947-27.948-27.947m180.952-475.181h-55.892c0-138.794-112.833-251.692-251.518-251.692-138.728 0-251.52 112.899-251.52 251.692H203.82c0-169.578 137.942-307.586 307.412-307.586 169.469 0 307.411 138.008 307.411 307.586"/></svg>