<svg class="icon" viewBox="0 0 1024 1024" xmlns="http://www.w3.org/2000/svg" width="200" height="200"><defs><style/></defs><path d="M846.6 851H174.38a90.1 90.1 0 01-90-90V261a90.1 90.1 0 0190-90H846.6a90.1 90.1 0 0190 90v500a90.1 90.1 0 01-90 90zM174.38 231a30 30 0 00-30 30v500a30 30 0 0030 30H846.6a30 30 0 0030-30V261a30 30 0 00-30-30z"/><path d="M906.6 402.54H114.38a30 30 0 110-60H906.6a30 30 0 010 60zM283.57 728.79a30 30 0 01-21-51.46L426 517.83a30 30 0 0141.79-.12l106.79 103.12L717.14 479.5a30 30 0 0142.24 42.61L596 684.1a30 30 0 01-42 .28L447 581.11 304.53 720.26a29.91 29.91 0 01-20.96 8.53z"/></svg>