<svg class="icon" viewBox="0 0 1024 1024" xmlns="http://www.w3.org/2000/svg" width="200" height="200"><defs><style/></defs><path d="M1004.8 358.4l-96-127.936a94.944 94.944 0 00-12.8-13.536V64a64 64 0 00-64-64H192a64 64 0 00-64 64v152.96a94.24 94.24 0 00-12.8 13.44L19.232 358.368A96.416 96.416 0 000 416v32c0 52.928 43.072 96 96 96v416a64 64 0 0064 64h704a64 64 0 0064-64V544c52.928 0 96-43.072 96-96v-32c0-20.672-6.816-41.12-19.2-57.6zM832 64v128H192V64h640zM326.176 480H192.128l128-224h70.048l-64 224zm97.312-224H496v224H359.488l64-224zM528 256h72.512l64 224H528V256zm105.76 0h70.048l128 224H697.76l-64-224zM64 448v-32c0-6.944 2.24-13.664 6.4-19.2l96-128A32 32 0 01192 256h91.264l-128 224H96a32 32 0 01-32-32zm576 512H400V640h240v320zm224 0H672V640a32 32 0 00-32-32H400a32 32 0 00-32 32v320H160V544h704v416zm96-512a32 32 0 01-32 32h-59.328l-128-224H832c10.048 0 19.552 4.736 25.568 12.8l96 128A31.744 31.744 0 01960 416v32z"/></svg>