<svg class="icon" viewBox="0 0 1244 1024" xmlns="http://www.w3.org/2000/svg" width="242.969" height="200"><defs><style/></defs><path d="M578.8 206.29v525.375l405.214 197.417c57.676 28.098 124.85-13.899 124.85-78.056V86.929c0-64.144-67.174-106.14-124.85-78.057zm-86.82 523.16V208.519H269.25C130.978 208.518 10.164 312.566.64 450.499c-10.041 145.624 99.727 267.77 240.568 278.082a29.334 29.334 0 0123.573 14.28l153.953 266.655a28.94 28.94 0 0039.538 10.598l125.311-72.35a28.94 28.94 0 0010.598-39.538L490.947 729.451zm616.883-453.936v65.842a173.558 173.558 0 010 289.4v65.842a231.235 231.235 0 000-421.016z"/></svg>