<svg class="icon" viewBox="0 0 1024 1024" xmlns="http://www.w3.org/2000/svg" width="200" height="200"><defs><style/></defs><path d="M691.724 171.585H332.326a49.846 49.846 0 01-49.81-49.797V49.809A49.859 49.859 0 01332.326 0h359.398a49.846 49.846 0 0149.797 49.81v71.978a49.846 49.846 0 01-49.797 49.797zm0-49.797zM332.326 49.809v71.979h359.398l.074-71.979z"/><path d="M865.235 1024H158.79a74.794 74.794 0 01-74.708-74.695V117.144a74.794 74.794 0 0174.708-74.708h51.328v49.76h-51.353a24.923 24.923 0 00-24.899 24.948v832.16a24.936 24.936 0 0024.899 24.96H865.21a24.936 24.936 0 0024.911-24.898V117.144a24.936 24.936 0 00-24.91-24.899h-57.492V42.387h57.516a74.782 74.782 0 0174.708 74.757v832.16A74.782 74.782 0 01865.235 1024z"/><path d="M276.872 387.396h347.53v49.797h-347.53zm-6.496 194.878h506.69v49.797h-506.69zm6.496 181.885H786.81v49.797H276.872z"/></svg>