<svg class="icon" viewBox="0 0 1024 1024" xmlns="http://www.w3.org/2000/svg" width="200" height="200"><defs><style/></defs><path d="M864.75 97h-705.5C124.93 97 97 124.93 97 159.25v705.5c0 34.32 27.93 62.25 62.25 62.25h705.5c34.32 0 62.25-27.93 62.25-62.25v-705.5C927 124.93 899.07 97 864.75 97zm-168.49 41.5v141.14H327.74V138.5h368.52zM885.5 864.75c0 11.45-9.3 20.75-20.75 20.75h-705.5c-11.45 0-20.75-9.3-20.75-20.75v-705.5c0-11.45 9.3-20.75 20.75-20.75h126.99v145.29c0 20.58 16.77 37.35 37.35 37.35h376.82c20.58 0 37.35-16.77 37.35-37.35V138.5h126.99c11.45 0 20.75 9.3 20.75 20.75v705.5z"/><path d="M717.01 509.09H306.99c-11.46 0-20.75-9.29-20.75-20.75s9.29-20.75 20.75-20.75h410.02c11.46 0 20.75 9.29 20.75 20.75s-9.29 20.75-20.75 20.75zm-94.62 157.7h-315.4c-11.46 0-20.75-9.29-20.75-20.75s9.29-20.75 20.75-20.75h315.4c11.46 0 20.75 9.29 20.75 20.75s-9.29 20.75-20.75 20.75z"/></svg>