<svg class="icon" viewBox="0 0 1024 1024" xmlns="http://www.w3.org/2000/svg" width="200" height="200"><defs><style/></defs><path d="M218.55 512v438.857h220.892V512.001h72.557v438.856h294.034V512.001h71.826v438.856h111.909V1024H38.912v-73.143h108.251V512.001h71.388zM512 .002c5.924 0 11.556 1.829 16.383 5.12l484.352 346.185a26.55 26.55 0 019.728 30.72 27.502 27.502 0 01-26.112 18.651H27.648a25.966 25.966 0 01-26.112-18.65 26.917 26.917 0 019.728-30.72L495.615 5.12A28.087 28.087 0 01512 .001zm0 83.31L170.202 327.535h683.52L511.998 83.238z"/></svg>