<svg class="icon" viewBox="0 0 1024 1024" xmlns="http://www.w3.org/2000/svg" width="200" height="200"><defs><style/></defs><path d="M237.13 247.7h48q8 0 8 8v48q0 8-8 8h-48q-8 0-8-8v-48q0-8 8-8zM365.13 247.7h48q8 0 8 8v48q0 8-8 8h-48q-8 0-8-8v-48q0-8 8-8z"/><path d="M517.13 823.7h-352v-408h688v64a8 8 0 008 8h40a8 8 0 008-8v-304a32 32 0 00-32-32h-736a32 32 0 00-32 32v672a32 32 0 0032 32h376a8 8 0 008-8v-40a8 8 0 00-8-8zm-352-624h688v160h-688z"/><path d="M895.14 766.85l-36.43-21a120.55 120.55 0 000-68.22l36.43-21a8 8 0 003.41-10 167.81 167.81 0 00-21.11-36.51 8 8 0 00-10.32-2l-36.43 21A119.87 119.87 0 00771.64 595v-42a8 8 0 00-7.08-7.95 168.9 168.9 0 00-41.84 0 8 8 0 00-7.08 7.95v42a119.87 119.87 0 00-59.12 34.19l.07-.07-36.43-21a8 8 0 00-10.32 2 167.81 167.81 0 00-21.11 36.51 8 8 0 003.41 10l36.43 21a120.12 120.12 0 00-4.91 35.82 118.79 118.79 0 005 32.4h-.07l-36.43 21a8 8 0 00-3.41 10 167.82 167.82 0 0021.11 36.51 8 8 0 0010.32 2l36.43-21 .11-.11a120.34 120.34 0 0059.07 34.22h-.13v42a8 8 0 007.08 7.95 168.9 168.9 0 0041.84 0 8 8 0 007.08-7.95v-42a119.88 119.88 0 0059.05-34.12l36.43 21a8 8 0 0010.32-2 167.81 167.81 0 0021.11-36.51 8 8 0 00-3.43-9.99zm-151.5 8.85h-.93c-34.3-.48-62.59-28.77-63.06-63.06a64 64 0 1164 63.07z"/></svg>