<svg class="icon" viewBox="0 0 1024 1024" xmlns="http://www.w3.org/2000/svg" width="200" height="200"><defs><style/></defs><path d="M836.01 199.68c-1.578-.768-2.986-1.707-4.735-2.09l-314.71-69.291c-2.005-.427-3.968-.256-5.93-.128-.512-.086-1.152.042-1.75 0h-.853c-1.92-.128-3.925-.299-5.973.128l-309.376 69.29c-1.792.427-3.243 1.323-4.694 2.134a21.035 21.035 0 00-17.365 20.48v325.333c0 1.408.597 2.645.853 3.968 8.363 198.101 173.398 324.907 337.067 348.288a24.747 24.747 0 003.03.213l.426-.085.341.085a25.472 25.472 0 003.158-.213 453.116 453.116 0 0023.893-4.181 21.376 21.376 0 0016.64-25.174 21.504 21.504 0 00-25.173-16.64c-6.23 1.28-12.544 2.347-18.816 3.286-148.95-22.315-298.71-139.264-298.71-321.024V236.715l296.064-66.347 301.227 66.347v244.864a21.333 21.333 0 1042.667 0V220.203a20.992 20.992 0 00-17.28-20.48"/><path d="M533.333 312.661a21.333 21.333 0 00-42.666 0V566.87a21.333 21.333 0 0042.666 0V312.661zM512 630.87a21.333 21.333 0 00-21.333 21.334v42.666a21.333 21.333 0 0042.666 0v-42.666A21.333 21.333 0 00512 630.869m192 0a64 64 0 100 128.043 64 64 0 000-128"/><path d="M704 801.536a106.752 106.752 0 01-106.667-106.667c0-58.837 47.83-106.666 106.667-106.666s106.667 47.829 106.667 106.666c0 58.88-47.83 106.667-106.667 106.667m0-256c-82.347 0-149.333 66.987-149.333 149.333S621.653 844.203 704 844.203s149.333-66.987 149.333-149.334S786.347 545.536 704 545.536"/></svg>